<svg xmlns="http://www.w3.org/2000/svg" xmlns:xlink="http://www.w3.org/1999/xlink" version="1.1" width="64" height="64" style="" xml:space="preserve"><rect id="backgroundrect" width="100%" height="100%" x="0" y="0" fill="none" stroke="none"/>
















<g class="currentLayer" style=""><title>Layer 1</title><g id="svg_1" class="" fill="#ffffff" fill-opacity="1">
	<g id="svg_2" fill="#ffffff" fill-opacity="1">
		<g id="circle_12_" fill="#ffffff" fill-opacity="1">
			<g id="svg_3" fill="#ffffff" fill-opacity="1">
				<path d="M32,0C14.328,0,0,14.327,0,32c0,17.674,14.328,32,32,32c17.673,0,32-14.326,32-32C64,14.327,49.673,0,32,0z M32,62      C15.432,62,2,48.568,2,32C2,15.432,15.432,2,32,2c16.568,0,30,13.432,30,30C62,48.568,48.568,62,32,62z" id="svg_4" fill="#ffffff" fill-opacity="1"/>
			</g>
		</g>
		<g id="Printer_1_" fill="#ffffff" fill-opacity="1">
			<g id="svg_5" fill="#ffffff" fill-opacity="1">
				<path d="M43,28c-0.552,0-1,0.448-1,1c0,0.553,0.448,1,1,1s1-0.447,1-1C44,28.448,43.553,28,43,28z M44,24h-5v-1      c0-2.209-1.791-4-4-4h-6c-2.209,0-4,1.791-4,4v1h-5c-2.209,0-4,1.791-4,4v12c0,2.209,1.791,4,4,4h24c2.209,0,4-1.791,4-4V28      C48,25.791,46.209,24,44,24z M27,23c0-1.104,0.896-2,2-2h6c1.104,0,2,0.896,2,2v1H27V23z M46,40c0,1.104-0.896,2-2,2H20      c-1.104,0-2-0.896-2-2V28c0-1.104,0.896-2,2-2h24c1.104,0,2,0.896,2,2V40z M32,28c-3.313,0-6,2.687-6,6c0,3.312,2.687,6,6,6      c3.314,0,6-2.688,6-6C38,30.687,35.314,28,32,28z M32,38c-2.209,0-4-1.791-4-4s1.791-4,4-4s4,1.791,4,4S34.209,38,32,38z" id="svg_6" fill="#ffffff" fill-opacity="1"/>
			</g>
		</g>
	</g>
</g><g id="svg_7">
</g><g id="svg_8">
</g><g id="svg_9">
</g><g id="svg_10">
</g><g id="svg_11">
</g><g id="svg_12">
</g><g id="svg_13">
</g><g id="svg_14">
</g><g id="svg_15">
</g><g id="svg_16">
</g><g id="svg_17">
</g><g id="svg_18">
</g><g id="svg_19">
</g><g id="svg_20">
</g><g id="svg_21">
</g><polyline fill="#ffffff" stroke="#222222" stroke-width="2" stroke-linejoin="round" stroke-dashoffset="" fill-rule="nonzero" marker-start="" marker-mid="" marker-end="" id="svg_22" points="378.2809555973981,105.1404935619104 378.2809555973981,105.1404935619104 " style="color: rgb(0, 0, 0);"/><polyline fill="#ffffff" stroke="#222222" stroke-width="2" stroke-linejoin="round" stroke-dashoffset="" fill-rule="nonzero" marker-start="" marker-mid="" marker-end="" id="svg_23" points="-2.7107679284854385,-41.96693981684726 -2.7107679284854385,-42.79338607178411 " style="color: rgb(0, 0, 0);"/></g></svg>