<svg xmlns="http://www.w3.org/2000/svg" xmlns:xlink="http://www.w3.org/1999/xlink" version="1.1" width="512" height="512" style=""><rect id="backgroundrect" width="100%" height="100%" x="0" y="0" fill="none" stroke="none"/>

	
	
<g class="currentLayer" style=""><title>Layer 1</title><g id="svg_1">
</g><path d="M250.911 257.945c0 64.492-52.306 116.777-116.818 116.777s-116.808-52.286-116.808-116.777c0-64.543 52.296-116.818 116.808-116.818 64.512 0 116.818 52.286 116.818 116.818z" fill="#ffffff" id="svg_2" class="" fill-opacity="1"/><path d="M475.341 255.99c0 54.805-44.595 99.379-99.399 99.379s-99.379-44.585-99.379-99.379c0-54.794 44.585-99.369 99.379-99.369s99.399 44.575 99.399 99.369zM375.941 137.237c-65.495 0-118.774 53.268-118.774 118.754 0 65.495 53.279 118.774 118.774 118.774 65.485 0 118.784-53.269 118.784-118.774 0-65.485-53.31-118.754-118.784-118.754z" fill="#ffffff" id="svg_3" class="selected" fill-opacity="1"/></g></svg>