<svg xmlns="http://www.w3.org/2000/svg" width="448" height="512"><rect id="backgroundrect" width="100%" height="100%" x="0" y="0" fill="none" stroke="none"/><g class="currentLayer" style=""><title>Layer 1</title><path d="M416,28 H31.9 C14.3,28 0,42.5 0,60.3 v383.4 C0,461.5 14.3,476 31.9,476 H416 c17.6,0 32,-14.5 32,-32.3 V60.3 c0,-17.8 -14.4,-32.3 -32,-32.3 zM135.4,412 H69 V198.2 h66.5 V412 zm-33.2,-243 c-21.3,0 -38.5,-17.3 -38.5,-38.5 S80.9,92 102.2,92 c21.2,0 38.5,17.3 38.5,38.5 c0,21.3 -17.2,38.5 -38.5,38.5 zm282.1,243 h-66.4 V308 c0,-24.8 -0.5,-56.7 -34.5,-56.7 c-34.6,0 -39.9,27 -39.9,54.9 V412 h-66.4 V198.2 h63.7 v29.2 h0.9 c8.9,-16.8 30.6,-34.5 62.9,-34.5 c67.2,0 79.7,44.3 79.7,101.9 V412 z" id="svg_1" class="selected" fill="#ffffff" fill-opacity="1"/></g></svg>