<svg xmlns="http://www.w3.org/2000/svg" xmlns:xlink="http://www.w3.org/1999/xlink" version="1.1" enable-background="new 0 0 500 500" xml:space="preserve" width="500" height="500"><rect id="backgroundrect" width="100%" height="100%" x="0" y="0" fill="none" stroke="none"/>

<g class="currentLayer" style=""><title>Layer 1</title><path fill="#ffffff" d="M499.4,268.4c-0.3-2.6-0.7-5.1-1.2-7.6c-2.5-13.2-8-25.8-16.3-36.4c-9.2-11.9-22.4-20.4-36.8-24.6  c-5.9-1.8-12-2.6-18.2-3.2c-5.1-0.1-10.3-0.3-15.3,0.3c-4.9,0.4-9.8,1.4-14.6,2.8c-6.7,2.1-13.3,4.9-19.5,8.4  c-9.2,5.1-17.5,11.9-25,19.2c-7.8,7.9-15,16.3-22.1,24.8c-5.5-6.6-11.2-13-17-19.2c-3.3-3.3-6.5-6.7-10-9.8  c-11.5-10.3-24.9-18.7-39.8-23.2c-5.5-1.7-11.3-2.6-17.1-3.2c-3.6-0.3-7.1-0.1-10.7-0.1c-1.2,0-2.5-0.1-3.7,0.3  c-3.6,0.1-7.2,0.8-10.8,1.4c-2,0.4-4.1,0.9-6.1,1.6c-9.2,2.8-17.8,7.2-25.3,13.2c-11.2,8.8-19.4,21-24,34.4  c-2.1-4.6-4.6-9.2-7.5-13.3c-8.7-12.3-21.6-21.3-36-25.4c-2.2-0.7-4.5-1.2-6.9-1.6c-3-0.5-6.1-0.8-9.1-1.1  c-6.3-0.1-12.8-0.1-19.1,1.1c-12,1.8-23.2,8-31.6,16.7c-1.4-0.1-0.7-2-0.5-2.9c0.9-5.8,2-11.5,3-17.3c0.8-5,1.8-10,2.6-14.9  c0.9-5.1,1.8-10.1,2.8-15.3c0.1-0.7,0.3-1.3,0.4-2c0.1-0.5,0.1-0.9,0.3-1.4c32.2,0,64.3,0,96.5,0c0-13,0-26,0-39  c-43.5,0-87,0-130.5,0c-1.3,7.4-2.6,14.9-4,22.3c-0.5,2.8-1.1,5.5-1.4,8.4c-0.9,5.1-1.8,10.1-2.8,15.3c-0.1,0.8-0.3,1.4-0.4,2.2  c-0.3,2.1-0.8,4.1-1.1,6.2c-0.5,3-1.1,6.1-1.6,9.1c-0.5,2.8-1.1,5.7-1.6,8.4c-0.3,2.1-0.7,4.1-1.1,6.2c-0.1,0.7-0.3,1.3-0.4,1.8  c-0.9,5.1-1.8,10.1-2.8,15.3c-1.6,8.6-3,17.3-4.6,25.8c-0.3,2.1-0.7,4.1-1.1,6.2c-0.1,0.7-0.3,1.3-0.3,2.1c14.2,0,28.5,0,42.6,0  c4.3-5.9,9.6-11.5,16.3-14.9c4.5-2.2,9.6-3.3,14.6-3.7c3.2-0.1,6.5-0.1,9.6,0c1.2,0.3,2.5,0.3,3.8,0.5c7.6,1.3,14.8,5.3,20,10.7  c5.7,5.8,9.2,13.3,10.8,21.2c2.6,13,0.5,27.1-6.7,38.4c-4.2,6.6-10.5,11.9-17.7,15c-3.6,1.6-7.4,2.4-11.2,2.8  c-2.5,0.1-4.9,0.1-7.4,0c-2.8-0.4-5.7-0.7-8.4-1.6c-7.1-2-13.6-6.2-18.1-12.1c-4.9-6.1-7.5-13.7-8.2-21.3c-15.8,0-31.6,0-47.4,0  c0.3,2.5,0.1,5,0.5,7.4c0.1,2.6,0.7,5.1,1.1,7.6c0.1,0.7,0.3,1.2,0.4,1.8c0.4,1.6,0.8,3,1.2,4.5c3.2,10.7,9.4,20.4,17.1,28.3  c5.8,5.7,12.7,10.4,19.9,14.1c6.3,3.2,13,5.3,19.9,7c9.4,2.1,19,3.2,28.5,2.9c19.4,0.1,38.6-6.5,53.8-18.6  c10.7-8.6,19.1-19.8,24.5-32.4c2,4.7,4.1,9.4,6.9,13.7c3.8,6.2,8.8,11.7,14.4,16.6c11.1,9.5,24.6,16.1,39.1,18.2  c9.4,1.4,18.8,1.4,28.2,0.1c2.6-0.5,5.3-0.9,7.9-1.6c1.7-0.4,3.3-0.9,5-1.6c4.5-1.6,8.8-3.4,13-5.7c9-4.6,17-10.8,24.5-17.5  c5.4-5,10.3-10.3,15.4-15.6c3-3.3,6.3-6.5,9.2-9.8c3.4,4,6.9,7.8,10.4,11.6c5.1,5.3,10.3,10.7,15.9,15.3  c12.4,10.5,26.8,19,42.6,23.2c2.4,0.5,4.6,1.1,7,1.4c8.4,1.4,17,1.3,25.4,0.4c15.2-1.8,29.9-8.3,41.2-18.6  c11.7-10.8,19.6-25.2,23.6-40.5c0.7-2.4,1.2-4.7,1.6-7.1c0.4-2.5,0.8-4.9,1.1-7.4c0.5-4.2,0.7-8.3,0.7-12.5  C500.1,276.6,500.1,272.5,499.4,268.4z M277.6,306.8c-6.2,4.6-13.2,8.3-20.4,10.9c-2.5,0.9-5.1,1.6-7.8,2.1  c-7.8,1.3-16.1,1.1-23.5-1.7c-6.1-2.2-11.2-6.5-14.9-11.7c-2.6-3.7-4.5-8-5.5-12.4c-1.1-5.1-1.7-10.4-1.1-15.7  c0.1-2.2,0.5-4.5,1.1-6.6c1.7-6.9,5.1-13.3,9.9-18.7c4.5-5.1,10.9-8.7,17.7-9.8c1.1-0.3,2.2-0.3,3.3-0.5c3.2-0.1,6.5-0.1,9.5,0.5  c8.6,1.4,16.3,5.5,23.5,10.1c12.4,8.3,23.1,18.8,33.2,29.8C295,291.7,287,300.2,277.6,306.8z M456.5,287.5  c-0.9,7.9-3.7,15.6-8.8,21.7c-4.2,5.4-10.5,9.1-17.1,10.4c-6.2,1.3-12.8,1.3-19.1,0.1c-1.6-0.3-3.2-0.7-4.7-1.1  c-15.7-4.7-29-15-40.1-26.8c-2.8-3-5.8-5.9-8.3-9.2c6.1-6.3,12-12.9,18.5-19c8.7-8,18.3-15.3,29.7-19.2c2.1-0.7,4.2-1.2,6.5-1.6  c6.6-1.1,13.4-0.7,19.8,1.6c7,2.4,12.8,7.2,16.9,13.3c3.8,5.5,6.1,12.1,6.9,18.7C456.7,280.3,456.7,284,456.5,287.5z" id="svg_1" class="selected" fill-opacity="1"/></g></svg>